<svg width="80.000000" height="80.000000" viewBox="0 0 80 80" fill="none" xmlns="http://www.w3.org/2000/svg" xmlns:xlink="http://www.w3.org/1999/xlink">
	<desc>
			Created with Pixso.
	</desc>
	<defs/>
	<rect id="Frame 1321315329" rx="39.628437" width="79.256874" height="79.256874" transform="translate(0.371564 0.371564)" fill="#FFD755" fill-opacity="1.000000"/>
	<path id="Body" d="M48.53 44.66C48.53 49.67 44.88 53.36 39.88 53.36C35.38 53.36 31.95 50.44 31.75 46.45L34.82 46.45C35.07 48.81 37.2 50.54 39.88 50.54C43.11 50.54 45.46 48.07 45.46 44.71C45.46 41.29 43.02 38.76 39.68 38.73C38.07 38.71 36.22 39.28 35.13 40.06L32.17 39.7L33.75 26.81L47.36 26.81L47.36 29.62L36.41 29.62L35.49 37.35L35.64 37.35C36.72 36.49 38.43 35.87 40.19 35.87C45 35.87 48.53 39.58 48.53 44.66Z" fill="#000000" fill-opacity="1.000000" fill-rule="evenodd"/>
</svg>
