<svg width="80.000000" height="80.000000" viewBox="0 0 80 80" fill="none" xmlns="http://www.w3.org/2000/svg" xmlns:xlink="http://www.w3.org/1999/xlink">
	<desc>
			Created with Pixso.
	</desc>
	<defs/>
	<rect id="Frame 1321315329" rx="39.628437" width="79.256874" height="79.256874" transform="translate(0.371564 0.371564)" fill="#FFD755" fill-opacity="1.000000"/>
	<path id="Body" d="M48.89 45.88C48.89 50.17 45.12 53.36 40.05 53.36C34.97 53.36 31.34 50.57 31.16 46.45L34.37 46.45C34.57 48.98 36.97 50.54 40 50.54C43.37 50.54 45.78 48.66 45.78 45.88C45.78 43 43.57 40.98 39.6 40.98L37.5 40.98L37.5 38.17L39.6 38.17C42.7 38.17 44.86 36.37 44.86 33.62C44.86 30.97 42.99 29.22 40.11 29.22C37.38 29.22 34.9 30.75 34.79 33.36L31.72 33.36C31.87 29.24 35.63 26.45 40.16 26.45C45 26.45 47.93 29.76 47.93 33.46C47.93 36.41 46.28 38.59 43.63 39.39L43.63 39.6C46.93 40.15 48.89 42.56 48.89 45.88Z" fill="#000000" fill-opacity="1.000000" fill-rule="evenodd"/>
</svg>
