<svg width="80.000000" height="80.000000" viewBox="0 0 80 80" fill="none" xmlns="http://www.w3.org/2000/svg" xmlns:xlink="http://www.w3.org/1999/xlink">
	<desc>
			Created with Pixso.
	</desc>
	<defs/>
	<rect id="Frame 1321315329" rx="39.628437" width="79.256874" height="79.256874" transform="translate(0.371564 0.371564)" fill="#FFD755" fill-opacity="1.000000"/>
	<path id="Body" d="M48.33 53L31.81 53L31.81 50.69L40.46 41.24C43.48 37.92 44.91 36.13 44.91 33.72C44.91 30.95 42.73 29.22 39.9 29.22C36.86 29.22 34.93 31.2 34.93 34.18L31.92 34.18C31.92 29.57 35.4 26.45 39.99 26.45C44.6 26.45 47.87 29.68 47.87 33.72C47.87 36.62 46.54 38.87 42.04 43.69L36.16 49.98L36.16 50.18L48.33 50.18L48.33 53Z" fill="#000000" fill-opacity="1.000000" fill-rule="evenodd"/>
</svg>
