<svg width="80.000000" height="80.000000" viewBox="0 0 80 80" fill="none" xmlns="http://www.w3.org/2000/svg" xmlns:xlink="http://www.w3.org/1999/xlink">
	<desc>
			Created with Pixso.
	</desc>
	<defs/>
	<rect id="Frame 1321315329" rx="39.628437" width="79.256874" height="79.256874" transform="translate(0.371564 0.371564)" fill="#FFD755" fill-opacity="1.000000"/>
	<path id="Body" d="M48.92 44.56C48.92 49.43 45.47 53.42 40.17 53.36C35.88 53.3 31.07 50.6 31.07 40.93C31.07 31.67 34.69 26.45 40.58 26.45C44.98 26.45 48.07 29.29 48.71 33.36L45.59 33.36C45 31 43.34 29.26 40.58 29.26C36.53 29.26 34.05 32.96 34.04 39.35L34.25 39.35C35.67 37.18 37.99 35.87 40.69 35.87C45.17 35.87 48.92 39.5 48.92 44.56ZM34.5 44.61C34.48 47.74 36.89 50.54 40.17 50.54C43.39 50.54 45.85 47.88 45.85 44.56C45.85 41.31 43.48 38.68 40.28 38.68C37.03 38.68 34.51 41.47 34.5 44.61Z" fill="#000000" fill-opacity="1.000000" fill-rule="evenodd"/>
</svg>
